<svg viewBox="35 41 130 110" xmlns="http://www.w3.org/2000/svg">
<mask id="mask0" mask-type="alpha">
  <path d="M44.4,-22.8C57.7,-2.6,68.8,21.8,61,35.2C53.2,48.6,26.6,51.1,-0.1,51.2C-26.8,51.2,-53.7,48.9,-60.1,36.2C-66.6,23.5,-52.7,0.6,-39.2,-19.7C-25.8,-40,-12.9,-57.7,1.3,-58.5C15.5,-59.2,31.1,-43.1,44.4,-22.8Z" transform="translate(100 100)" />
 </mask>
<g mask="url(#mask0)">
    <path d="M44.4,-22.8C57.7,-2.6,68.8,21.8,61,35.2C53.2,48.6,26.6,51.1,-0.1,51.2C-26.8,51.2,-53.7,48.9,-60.1,36.2C-66.6,23.5,-52.7,0.6,-39.2,-19.7C-25.8,-40,-12.9,-57.7,1.3,-58.5C15.5,-59.2,31.1,-43.1,44.4,-22.8Z" transform="translate(100 100)" />
    <image href=""/>
</g>
</svg> 